<?xml version="1.0" encoding="UTF-8" standalone="no"?>
<!DOCTYPE svg PUBLIC "-//W3C//DTD SVG 1.1//EN"
 "http://www.w3.org/Graphics/SVG/1.1/DTD/svg11.dtd">
<!-- Generated by graphviz version 2.44.1 (20200629.0846)
 -->
<!-- Title: dependencies Pages: 1 -->
<svg width="2248pt" height="284pt"
 viewBox="0.00 0.00 2248.00 284.00" xmlns="http://www.w3.org/2000/svg" xmlns:xlink="http://www.w3.org/1999/xlink">
<g id="graph0" class="graph" transform="scale(1 1) rotate(0) translate(4 280)">
<title>dependencies</title>
<polygon fill="white" stroke="transparent" points="-4,4 -4,-280 2244,-280 2244,4 -4,4"/>
<text text-anchor="start" x="1099.01" y="-42.4" font-family="sans-serif" font-weight="bold" font-size="14.00">Legend</text>
<polygon fill="#ffffb3" stroke="transparent" points="886,-10 886,-30 906,-30 906,-10 886,-10"/>
<text text-anchor="start" x="909.63" y="-15.4" font-family="sans-serif" font-size="14.00"> &#160;Declarations</text>
<polygon fill="#8dd3c7" stroke="transparent" points="999,-10 999,-30 1019,-30 1019,-10 999,-10"/>
<text text-anchor="start" x="1022.73" y="-15.4" font-family="sans-serif" font-size="14.00"> &#160;Module</text>
<polygon fill="#80b1d3" stroke="transparent" points="1085,-10 1085,-30 1105,-30 1105,-10 1085,-10"/>
<text text-anchor="start" x="1108.78" y="-15.4" font-family="sans-serif" font-size="14.00"> &#160;Bootstrap</text>
<polygon fill="#fdb462" stroke="transparent" points="1182,-10 1182,-30 1202,-30 1202,-10 1182,-10"/>
<text text-anchor="start" x="1205.67" y="-15.4" font-family="sans-serif" font-size="14.00"> &#160;Providers</text>
<polygon fill="#fb8072" stroke="transparent" points="1278,-10 1278,-30 1298,-30 1298,-10 1278,-10"/>
<text text-anchor="start" x="1301.73" y="-15.4" font-family="sans-serif" font-size="14.00"> &#160;Exports</text>
<g id="clust1" class="cluster">
<title>cluster_AppModule</title>
<polygon fill="none" stroke="black" stroke-dasharray="1,5" points="8,-70 8,-268 2232,-268 2232,-70 8,-70"/>
</g>
<g id="clust11" class="cluster">
<title>cluster_AppModule_imports</title>
<polygon fill="none" stroke="black" points="1335,-78 1335,-130 2224,-130 2224,-78 1335,-78"/>
</g>
<g id="clust13" class="cluster">
<title>cluster_AppModule_bootstrap</title>
<polygon fill="none" stroke="black" points="963,-208 963,-260 1087,-260 1087,-208 963,-208"/>
</g>
<g id="clust14" class="cluster">
<title>cluster_AppModule_providers</title>
<polygon fill="none" stroke="black" points="1157,-78 1157,-130 1327,-130 1327,-78 1157,-78"/>
</g>
<g id="clust2" class="cluster">
<title>cluster_AppModule_declarations</title>
<polygon fill="none" stroke="black" points="16,-78 16,-130 1149,-130 1149,-78 16,-78"/>
</g>
<!-- AppComponent -->
<g id="node1" class="node">
<title>AppComponent</title>
<polygon fill="#ffffb3" stroke="black" points="1140.94,-122 1035.06,-122 1035.06,-86 1140.94,-86 1140.94,-122"/>
<text text-anchor="middle" x="1088" y="-99.8" font-family="Times,serif" font-size="14.00">AppComponent</text>
</g>
<!-- AppModule -->
<g id="node9" class="node">
<title>AppModule</title>
<polygon fill="#8dd3c7" stroke="black" points="1066.66,-187 1063.66,-191 1042.66,-191 1039.66,-187 983.34,-187 983.34,-151 1066.66,-151 1066.66,-187"/>
<text text-anchor="middle" x="1025" y="-164.8" font-family="Times,serif" font-size="14.00">AppModule</text>
</g>
<!-- AppComponent&#45;&gt;AppModule -->
<g id="edge1" class="edge">
<title>AppComponent&#45;&gt;AppModule</title>
<path fill="none" stroke="black" d="M1051.05,-122.11C1051.05,-122.11 1051.05,-140.99 1051.05,-140.99"/>
<polygon fill="black" stroke="black" points="1047.55,-140.99 1051.05,-150.99 1054.55,-140.99 1047.55,-140.99"/>
</g>
<!-- UserComponent -->
<g id="node2" class="node">
<title>UserComponent</title>
<polygon fill="#ffffb3" stroke="black" points="1016.76,-122 909.24,-122 909.24,-86 1016.76,-86 1016.76,-122"/>
<text text-anchor="middle" x="963" y="-99.8" font-family="Times,serif" font-size="14.00">UserComponent</text>
</g>
<!-- UserComponent&#45;&gt;AppModule -->
<g id="edge2" class="edge">
<title>UserComponent&#45;&gt;AppModule</title>
<path fill="none" stroke="black" d="M1000.03,-122.11C1000.03,-122.11 1000.03,-140.99 1000.03,-140.99"/>
<polygon fill="black" stroke="black" points="996.53,-140.99 1000.03,-150.99 1003.53,-140.99 996.53,-140.99"/>
</g>
<!-- CleanerComponent -->
<g id="node3" class="node">
<title>CleanerComponent</title>
<polygon fill="#ffffb3" stroke="black" points="891.36,-122 766.64,-122 766.64,-86 891.36,-86 891.36,-122"/>
<text text-anchor="middle" x="829" y="-99.8" font-family="Times,serif" font-size="14.00">CleanerComponent</text>
</g>
<!-- CleanerComponent&#45;&gt;AppModule -->
<g id="edge3" class="edge">
<title>CleanerComponent&#45;&gt;AppModule</title>
<path fill="none" stroke="black" d="M829,-122.24C829,-137.57 829,-157 829,-157 829,-157 972.95,-157 972.95,-157"/>
<polygon fill="black" stroke="black" points="972.95,-160.5 982.95,-157 972.95,-153.5 972.95,-160.5"/>
</g>
<!-- CustomerComponent -->
<g id="node4" class="node">
<title>CustomerComponent</title>
<polygon fill="#ffffb3" stroke="black" points="748.77,-122 613.23,-122 613.23,-86 748.77,-86 748.77,-122"/>
<text text-anchor="middle" x="681" y="-99.8" font-family="Times,serif" font-size="14.00">CustomerComponent</text>
</g>
<!-- CustomerComponent&#45;&gt;AppModule -->
<g id="edge4" class="edge">
<title>CustomerComponent&#45;&gt;AppModule</title>
<path fill="none" stroke="black" d="M681,-122.03C681,-139.06 681,-162 681,-162 681,-162 973.16,-162 973.16,-162"/>
<polygon fill="black" stroke="black" points="973.16,-165.5 983.16,-162 973.16,-158.5 973.16,-165.5"/>
</g>
<!-- RequestComponent -->
<g id="node5" class="node">
<title>RequestComponent</title>
<polygon fill="#ffffb3" stroke="black" points="595.43,-122 468.57,-122 468.57,-86 595.43,-86 595.43,-122"/>
<text text-anchor="middle" x="532" y="-99.8" font-family="Times,serif" font-size="14.00">RequestComponent</text>
</g>
<!-- RequestComponent&#45;&gt;AppModule -->
<g id="edge5" class="edge">
<title>RequestComponent&#45;&gt;AppModule</title>
<path fill="none" stroke="black" d="M532,-122.22C532,-140.83 532,-167 532,-167 532,-167 972.97,-167 972.97,-167"/>
<polygon fill="black" stroke="black" points="972.97,-170.5 982.97,-167 972.97,-163.5 972.97,-170.5"/>
</g>
<!-- MainMenuBarComponent -->
<g id="node6" class="node">
<title>MainMenuBarComponent</title>
<polygon fill="#ffffb3" stroke="black" points="450.75,-122 287.25,-122 287.25,-86 450.75,-86 450.75,-122"/>
<text text-anchor="middle" x="369" y="-99.8" font-family="Times,serif" font-size="14.00">MainMenuBarComponent</text>
</g>
<!-- MainMenuBarComponent&#45;&gt;AppModule -->
<g id="edge6" class="edge">
<title>MainMenuBarComponent&#45;&gt;AppModule</title>
<path fill="none" stroke="black" d="M369,-122.22C369,-142.37 369,-172 369,-172 369,-172 973.22,-172 973.22,-172"/>
<polygon fill="black" stroke="black" points="973.22,-175.5 983.22,-172 973.22,-168.5 973.22,-175.5"/>
</g>
<!-- AboutComponent -->
<g id="node7" class="node">
<title>AboutComponent</title>
<polygon fill="#ffffb3" stroke="black" points="269.33,-122 152.67,-122 152.67,-86 269.33,-86 269.33,-122"/>
<text text-anchor="middle" x="211" y="-99.8" font-family="Times,serif" font-size="14.00">AboutComponent</text>
</g>
<!-- AboutComponent&#45;&gt;AppModule -->
<g id="edge7" class="edge">
<title>AboutComponent&#45;&gt;AppModule</title>
<path fill="none" stroke="black" d="M211,-122.04C211,-143.66 211,-177 211,-177 211,-177 973.23,-177 973.23,-177"/>
<polygon fill="black" stroke="black" points="973.23,-180.5 983.23,-177 973.23,-173.5 973.23,-180.5"/>
</g>
<!-- MainComponent -->
<g id="node8" class="node">
<title>MainComponent</title>
<polygon fill="#ffffb3" stroke="black" points="134.38,-122 23.62,-122 23.62,-86 134.38,-86 134.38,-122"/>
<text text-anchor="middle" x="79" y="-99.8" font-family="Times,serif" font-size="14.00">MainComponent</text>
</g>
<!-- MainComponent&#45;&gt;AppModule -->
<g id="edge8" class="edge">
<title>MainComponent&#45;&gt;AppModule</title>
<path fill="none" stroke="black" d="M79,-122.09C79,-145.13 79,-182 79,-182 79,-182 973.13,-182 973.13,-182"/>
<polygon fill="black" stroke="black" points="973.13,-185.5 983.13,-182 973.13,-178.5 973.13,-185.5"/>
</g>
<!-- AppComponent  -->
<g id="node15" class="node">
<title>AppComponent </title>
<polygon fill="#80b1d3" stroke="black" points="1079.44,-252 970.56,-252 970.56,-216 1079.44,-216 1079.44,-252"/>
<text text-anchor="middle" x="1025" y="-229.8" font-family="Times,serif" font-size="14.00">AppComponent </text>
</g>
<!-- AppModule&#45;&gt;AppComponent  -->
<g id="edge14" class="edge">
<title>AppModule&#45;&gt;AppComponent </title>
<path fill="none" stroke="black" stroke-dasharray="1,5" d="M1025,-187.11C1025,-187.11 1025,-205.99 1025,-205.99"/>
<polygon fill="black" stroke="black" points="1021.5,-205.99 1025,-215.99 1028.5,-205.99 1021.5,-205.99"/>
</g>
<!-- BrowserModule -->
<g id="node10" class="node">
<title>BrowserModule</title>
<polygon fill="#8dd3c7" stroke="black" points="2216.47,-122 2213.47,-126 2192.47,-126 2189.47,-122 2109.53,-122 2109.53,-86 2216.47,-86 2216.47,-122"/>
<text text-anchor="middle" x="2163" y="-99.8" font-family="Times,serif" font-size="14.00">BrowserModule</text>
</g>
<!-- BrowserModule&#45;&gt;AppModule -->
<g id="edge9" class="edge">
<title>BrowserModule&#45;&gt;AppModule</title>
<path fill="none" stroke="black" d="M2163,-122.09C2163,-145.13 2163,-182 2163,-182 2163,-182 1076.85,-182 1076.85,-182"/>
<polygon fill="black" stroke="black" points="1076.85,-178.5 1066.85,-182 1076.85,-185.5 1076.85,-178.5"/>
</g>
<!-- BrowserAnimationsModule -->
<g id="node11" class="node">
<title>BrowserAnimationsModule</title>
<polygon fill="#8dd3c7" stroke="black" points="2091.3,-122 2088.3,-126 2067.3,-126 2064.3,-122 1918.7,-122 1918.7,-86 2091.3,-86 2091.3,-122"/>
<text text-anchor="middle" x="2005" y="-99.8" font-family="Times,serif" font-size="14.00">BrowserAnimationsModule</text>
</g>
<!-- BrowserAnimationsModule&#45;&gt;AppModule -->
<g id="edge10" class="edge">
<title>BrowserAnimationsModule&#45;&gt;AppModule</title>
<path fill="none" stroke="black" d="M2005,-122.04C2005,-143.66 2005,-177 2005,-177 2005,-177 1076.8,-177 1076.8,-177"/>
<polygon fill="black" stroke="black" points="1076.8,-173.5 1066.8,-177 1076.8,-180.5 1076.8,-173.5"/>
</g>
<!-- AppRoutingModule -->
<g id="node12" class="node">
<title>AppRoutingModule</title>
<polygon fill="#8dd3c7" stroke="black" points="1900.27,-122 1897.27,-126 1876.27,-126 1873.27,-122 1771.73,-122 1771.73,-86 1900.27,-86 1900.27,-122"/>
<text text-anchor="middle" x="1836" y="-99.8" font-family="Times,serif" font-size="14.00">AppRoutingModule</text>
</g>
<!-- AppRoutingModule&#45;&gt;AppModule -->
<g id="edge11" class="edge">
<title>AppRoutingModule&#45;&gt;AppModule</title>
<path fill="none" stroke="black" d="M1836,-122.22C1836,-142.37 1836,-172 1836,-172 1836,-172 1076.9,-172 1076.9,-172"/>
<polygon fill="black" stroke="black" points="1076.9,-168.5 1066.9,-172 1076.9,-175.5 1076.9,-168.5"/>
</g>
<!-- AngularFireModule.initializeApp(args) -->
<g id="node13" class="node">
<title>AngularFireModule.initializeApp(args)</title>
<polygon fill="#8dd3c7" stroke="black" points="1753.71,-122 1750.71,-126 1729.71,-126 1726.71,-122 1516.29,-122 1516.29,-86 1753.71,-86 1753.71,-122"/>
<text text-anchor="middle" x="1635" y="-99.8" font-family="Times,serif" font-size="14.00">AngularFireModule.initializeApp(args)</text>
</g>
<!-- AngularFireModule.initializeApp(args)&#45;&gt;AppModule -->
<g id="edge12" class="edge">
<title>AngularFireModule.initializeApp(args)&#45;&gt;AppModule</title>
<path fill="none" stroke="black" d="M1635,-122.22C1635,-140.83 1635,-167 1635,-167 1635,-167 1076.93,-167 1076.93,-167"/>
<polygon fill="black" stroke="black" points="1076.93,-163.5 1066.93,-167 1076.93,-170.5 1076.93,-163.5"/>
</g>
<!-- AngularFirestoreModule -->
<g id="node14" class="node">
<title>AngularFirestoreModule</title>
<polygon fill="#8dd3c7" stroke="black" points="1498.68,-122 1495.68,-126 1474.68,-126 1471.68,-122 1343.32,-122 1343.32,-86 1498.68,-86 1498.68,-122"/>
<text text-anchor="middle" x="1421" y="-99.8" font-family="Times,serif" font-size="14.00">AngularFirestoreModule</text>
</g>
<!-- AngularFirestoreModule&#45;&gt;AppModule -->
<g id="edge13" class="edge">
<title>AngularFirestoreModule&#45;&gt;AppModule</title>
<path fill="none" stroke="black" d="M1421,-122.03C1421,-139.06 1421,-162 1421,-162 1421,-162 1077,-162 1077,-162"/>
<polygon fill="black" stroke="black" points="1077,-158.5 1067,-162 1077,-165.5 1077,-158.5"/>
</g>
<!-- AngularFirestore -->
<g id="node16" class="node">
<title>AngularFirestore</title>
<ellipse fill="#fdb462" stroke="black" cx="1242" cy="-104" rx="77" ry="18"/>
<text text-anchor="middle" x="1242" y="-99.8" font-family="Times,serif" font-size="14.00">AngularFirestore</text>
</g>
<!-- AngularFirestore&#45;&gt;AppModule -->
<g id="edge15" class="edge">
<title>AngularFirestore&#45;&gt;AppModule</title>
<path fill="none" stroke="black" d="M1242,-122.24C1242,-137.57 1242,-157 1242,-157 1242,-157 1076.84,-157 1076.84,-157"/>
<polygon fill="black" stroke="black" points="1076.84,-153.5 1066.84,-157 1076.84,-160.5 1076.84,-153.5"/>
</g>
</g>
</svg>
