<?xml version="1.0" encoding="UTF-8" standalone="no"?>
<!DOCTYPE svg PUBLIC "-//W3C//DTD SVG 1.1//EN"
 "http://www.w3.org/Graphics/SVG/1.1/DTD/svg11.dtd">
<!-- Generated by graphviz version 2.44.0 (20200408.0750)
 -->
<!-- Title: dependencies Pages: 1 -->
<svg width="2248pt" height="284pt"
 viewBox="0.00 0.00 2248.00 284.00" xmlns="http://www.w3.org/2000/svg" xmlns:xlink="http://www.w3.org/1999/xlink">
<g id="graph0" class="graph" transform="scale(1 1) rotate(0) translate(4 280)">
<title>dependencies</title>
<polygon fill="white" stroke="transparent" points="-4,4 -4,-280 2244,-280 2244,4 -4,4"/>
<text text-anchor="start" x="1099.01" y="-42.4" font-family="sans-serif" font-weight="bold" font-size="14.00">Legend</text>
<polygon fill="#ffffb3" stroke="transparent" points="886,-10 886,-30 906,-30 906,-10 886,-10"/>
<text text-anchor="start" x="909.63" y="-15.4" font-family="sans-serif" font-size="14.00"> &#160;Declarations</text>
<polygon fill="#8dd3c7" stroke="transparent" points="999,-10 999,-30 1019,-30 1019,-10 999,-10"/>
<text text-anchor="start" x="1022.73" y="-15.4" font-family="sans-serif" font-size="14.00"> &#160;Module</text>
<polygon fill="#80b1d3" stroke="transparent" points="1085,-10 1085,-30 1105,-30 1105,-10 1085,-10"/>
<text text-anchor="start" x="1108.78" y="-15.4" font-family="sans-serif" font-size="14.00"> &#160;Bootstrap</text>
<polygon fill="#fdb462" stroke="transparent" points="1182,-10 1182,-30 1202,-30 1202,-10 1182,-10"/>
<text text-anchor="start" x="1205.67" y="-15.4" font-family="sans-serif" font-size="14.00"> &#160;Providers</text>
<polygon fill="#fb8072" stroke="transparent" points="1278,-10 1278,-30 1298,-30 1298,-10 1278,-10"/>
<text text-anchor="start" x="1301.73" y="-15.4" font-family="sans-serif" font-size="14.00"> &#160;Exports</text>
<g id="clust1" class="cluster">
<title>cluster_AppModule</title>
<polygon fill="none" stroke="black" stroke-dasharray="1,5" points="8,-70 8,-268 2232,-268 2232,-70 8,-70"/>
</g>
<g id="clust11" class="cluster">
<title>cluster_AppModule_imports</title>
<polygon fill="none" stroke="black" points="1335,-78 1335,-130 2224,-130 2224,-78 1335,-78"/>
</g>
<g id="clust2" class="cluster">
<title>cluster_AppModule_declarations</title>
<polygon fill="none" stroke="black" points="194,-78 194,-130 1327,-130 1327,-78 194,-78"/>
</g>
<g id="clust13" class="cluster">
<title>cluster_AppModule_bootstrap</title>
<polygon fill="none" stroke="black" points="1012,-208 1012,-260 1136,-260 1136,-208 1012,-208"/>
</g>
<g id="clust14" class="cluster">
<title>cluster_AppModule_providers</title>
<polygon fill="none" stroke="black" points="16,-78 16,-130 186,-130 186,-78 16,-78"/>
</g>
<!-- AppComponent -->
<g id="node1" class="node">
<title>AppComponent</title>
<polygon fill="#ffffb3" stroke="black" points="1318.94,-122 1213.06,-122 1213.06,-86 1318.94,-86 1318.94,-122"/>
<text text-anchor="middle" x="1266" y="-99.8" font-family="Times,serif" font-size="14.00">AppComponent</text>
</g>
<!-- AppModule -->
<g id="node9" class="node">
<title>AppModule</title>
<polygon fill="#8dd3c7" stroke="black" points="1115.66,-187 1112.66,-191 1091.66,-191 1088.66,-187 1032.34,-187 1032.34,-151 1115.66,-151 1115.66,-187"/>
<text text-anchor="middle" x="1074" y="-164.8" font-family="Times,serif" font-size="14.00">AppModule</text>
</g>
<!-- AppComponent&#45;&gt;AppModule -->
<g id="edge1" class="edge">
<title>AppComponent&#45;&gt;AppModule</title>
<path fill="none" stroke="black" d="M1266,-122.24C1266,-137.57 1266,-157 1266,-157 1266,-157 1125.66,-157 1125.66,-157"/>
<polygon fill="black" stroke="black" points="1125.66,-153.5 1115.66,-157 1125.66,-160.5 1125.66,-153.5"/>
</g>
<!-- UserComponent -->
<g id="node2" class="node">
<title>UserComponent</title>
<polygon fill="#ffffb3" stroke="black" points="1194.76,-122 1087.24,-122 1087.24,-86 1194.76,-86 1194.76,-122"/>
<text text-anchor="middle" x="1141" y="-99.8" font-family="Times,serif" font-size="14.00">UserComponent</text>
</g>
<!-- UserComponent&#45;&gt;AppModule -->
<g id="edge2" class="edge">
<title>UserComponent&#45;&gt;AppModule</title>
<path fill="none" stroke="black" d="M1101.47,-122.11C1101.47,-122.11 1101.47,-140.99 1101.47,-140.99"/>
<polygon fill="black" stroke="black" points="1097.97,-140.99 1101.47,-150.99 1104.97,-140.99 1097.97,-140.99"/>
</g>
<!-- CleanerComponent -->
<g id="node3" class="node">
<title>CleanerComponent</title>
<polygon fill="#ffffb3" stroke="black" points="1069.36,-122 944.64,-122 944.64,-86 1069.36,-86 1069.36,-122"/>
<text text-anchor="middle" x="1007" y="-99.8" font-family="Times,serif" font-size="14.00">CleanerComponent</text>
</g>
<!-- CleanerComponent&#45;&gt;AppModule -->
<g id="edge3" class="edge">
<title>CleanerComponent&#45;&gt;AppModule</title>
<path fill="none" stroke="black" d="M1050.8,-122.11C1050.8,-122.11 1050.8,-140.99 1050.8,-140.99"/>
<polygon fill="black" stroke="black" points="1047.3,-140.99 1050.8,-150.99 1054.3,-140.99 1047.3,-140.99"/>
</g>
<!-- CustomerComponent -->
<g id="node4" class="node">
<title>CustomerComponent</title>
<polygon fill="#ffffb3" stroke="black" points="926.77,-122 791.23,-122 791.23,-86 926.77,-86 926.77,-122"/>
<text text-anchor="middle" x="859" y="-99.8" font-family="Times,serif" font-size="14.00">CustomerComponent</text>
</g>
<!-- CustomerComponent&#45;&gt;AppModule -->
<g id="edge4" class="edge">
<title>CustomerComponent&#45;&gt;AppModule</title>
<path fill="none" stroke="black" d="M859,-122.24C859,-137.57 859,-157 859,-157 859,-157 1022.29,-157 1022.29,-157"/>
<polygon fill="black" stroke="black" points="1022.29,-160.5 1032.29,-157 1022.29,-153.5 1022.29,-160.5"/>
</g>
<!-- RequestComponent -->
<g id="node5" class="node">
<title>RequestComponent</title>
<polygon fill="#ffffb3" stroke="black" points="773.43,-122 646.57,-122 646.57,-86 773.43,-86 773.43,-122"/>
<text text-anchor="middle" x="710" y="-99.8" font-family="Times,serif" font-size="14.00">RequestComponent</text>
</g>
<!-- RequestComponent&#45;&gt;AppModule -->
<g id="edge5" class="edge">
<title>RequestComponent&#45;&gt;AppModule</title>
<path fill="none" stroke="black" d="M710,-122.03C710,-139.06 710,-162 710,-162 710,-162 1022.24,-162 1022.24,-162"/>
<polygon fill="black" stroke="black" points="1022.24,-165.5 1032.24,-162 1022.24,-158.5 1022.24,-165.5"/>
</g>
<!-- MainMenuBarComponent -->
<g id="node6" class="node">
<title>MainMenuBarComponent</title>
<polygon fill="#ffffb3" stroke="black" points="628.75,-122 465.25,-122 465.25,-86 628.75,-86 628.75,-122"/>
<text text-anchor="middle" x="547" y="-99.8" font-family="Times,serif" font-size="14.00">MainMenuBarComponent</text>
</g>
<!-- MainMenuBarComponent&#45;&gt;AppModule -->
<g id="edge6" class="edge">
<title>MainMenuBarComponent&#45;&gt;AppModule</title>
<path fill="none" stroke="black" d="M547,-122.22C547,-140.83 547,-167 547,-167 547,-167 1022.21,-167 1022.21,-167"/>
<polygon fill="black" stroke="black" points="1022.21,-170.5 1032.21,-167 1022.21,-163.5 1022.21,-170.5"/>
</g>
<!-- AboutComponent -->
<g id="node7" class="node">
<title>AboutComponent</title>
<polygon fill="#ffffb3" stroke="black" points="447.33,-122 330.67,-122 330.67,-86 447.33,-86 447.33,-122"/>
<text text-anchor="middle" x="389" y="-99.8" font-family="Times,serif" font-size="14.00">AboutComponent</text>
</g>
<!-- AboutComponent&#45;&gt;AppModule -->
<g id="edge7" class="edge">
<title>AboutComponent&#45;&gt;AppModule</title>
<path fill="none" stroke="black" d="M389,-122.22C389,-142.37 389,-172 389,-172 389,-172 1022.18,-172 1022.18,-172"/>
<polygon fill="black" stroke="black" points="1022.18,-175.5 1032.18,-172 1022.18,-168.5 1022.18,-175.5"/>
</g>
<!-- MainComponent -->
<g id="node8" class="node">
<title>MainComponent</title>
<polygon fill="#ffffb3" stroke="black" points="312.38,-122 201.62,-122 201.62,-86 312.38,-86 312.38,-122"/>
<text text-anchor="middle" x="257" y="-99.8" font-family="Times,serif" font-size="14.00">MainComponent</text>
</g>
<!-- MainComponent&#45;&gt;AppModule -->
<g id="edge8" class="edge">
<title>MainComponent&#45;&gt;AppModule</title>
<path fill="none" stroke="black" d="M257,-122.04C257,-143.66 257,-177 257,-177 257,-177 1022.08,-177 1022.08,-177"/>
<polygon fill="black" stroke="black" points="1022.08,-180.5 1032.08,-177 1022.08,-173.5 1022.08,-180.5"/>
</g>
<!-- AppComponent  -->
<g id="node15" class="node">
<title>AppComponent </title>
<polygon fill="#80b1d3" stroke="black" points="1128.44,-252 1019.56,-252 1019.56,-216 1128.44,-216 1128.44,-252"/>
<text text-anchor="middle" x="1074" y="-229.8" font-family="Times,serif" font-size="14.00">AppComponent </text>
</g>
<!-- AppModule&#45;&gt;AppComponent  -->
<g id="edge14" class="edge">
<title>AppModule&#45;&gt;AppComponent </title>
<path fill="none" stroke="black" stroke-dasharray="1,5" d="M1074,-187.11C1074,-187.11 1074,-205.99 1074,-205.99"/>
<polygon fill="black" stroke="black" points="1070.5,-205.99 1074,-215.99 1077.5,-205.99 1070.5,-205.99"/>
</g>
<!-- BrowserModule -->
<g id="node10" class="node">
<title>BrowserModule</title>
<polygon fill="#8dd3c7" stroke="black" points="2216.47,-122 2213.47,-126 2192.47,-126 2189.47,-122 2109.53,-122 2109.53,-86 2216.47,-86 2216.47,-122"/>
<text text-anchor="middle" x="2163" y="-99.8" font-family="Times,serif" font-size="14.00">BrowserModule</text>
</g>
<!-- BrowserModule&#45;&gt;AppModule -->
<g id="edge9" class="edge">
<title>BrowserModule&#45;&gt;AppModule</title>
<path fill="none" stroke="black" d="M2163,-122.09C2163,-145.13 2163,-182 2163,-182 2163,-182 1125.69,-182 1125.69,-182"/>
<polygon fill="black" stroke="black" points="1125.69,-178.5 1115.69,-182 1125.69,-185.5 1125.69,-178.5"/>
</g>
<!-- BrowserAnimationsModule -->
<g id="node11" class="node">
<title>BrowserAnimationsModule</title>
<polygon fill="#8dd3c7" stroke="black" points="2091.3,-122 2088.3,-126 2067.3,-126 2064.3,-122 1918.7,-122 1918.7,-86 2091.3,-86 2091.3,-122"/>
<text text-anchor="middle" x="2005" y="-99.8" font-family="Times,serif" font-size="14.00">BrowserAnimationsModule</text>
</g>
<!-- BrowserAnimationsModule&#45;&gt;AppModule -->
<g id="edge10" class="edge">
<title>BrowserAnimationsModule&#45;&gt;AppModule</title>
<path fill="none" stroke="black" d="M2005,-122.04C2005,-143.66 2005,-177 2005,-177 2005,-177 1125.81,-177 1125.81,-177"/>
<polygon fill="black" stroke="black" points="1125.81,-173.5 1115.81,-177 1125.81,-180.5 1125.81,-173.5"/>
</g>
<!-- AppRoutingModule -->
<g id="node12" class="node">
<title>AppRoutingModule</title>
<polygon fill="#8dd3c7" stroke="black" points="1900.27,-122 1897.27,-126 1876.27,-126 1873.27,-122 1771.73,-122 1771.73,-86 1900.27,-86 1900.27,-122"/>
<text text-anchor="middle" x="1836" y="-99.8" font-family="Times,serif" font-size="14.00">AppRoutingModule</text>
</g>
<!-- AppRoutingModule&#45;&gt;AppModule -->
<g id="edge11" class="edge">
<title>AppRoutingModule&#45;&gt;AppModule</title>
<path fill="none" stroke="black" d="M1836,-122.22C1836,-142.37 1836,-172 1836,-172 1836,-172 1125.78,-172 1125.78,-172"/>
<polygon fill="black" stroke="black" points="1125.78,-168.5 1115.78,-172 1125.78,-175.5 1125.78,-168.5"/>
</g>
<!-- AngularFireModule.initializeApp(args) -->
<g id="node13" class="node">
<title>AngularFireModule.initializeApp(args)</title>
<polygon fill="#8dd3c7" stroke="black" points="1753.71,-122 1750.71,-126 1729.71,-126 1726.71,-122 1516.29,-122 1516.29,-86 1753.71,-86 1753.71,-122"/>
<text text-anchor="middle" x="1635" y="-99.8" font-family="Times,serif" font-size="14.00">AngularFireModule.initializeApp(args)</text>
</g>
<!-- AngularFireModule.initializeApp(args)&#45;&gt;AppModule -->
<g id="edge12" class="edge">
<title>AngularFireModule.initializeApp(args)&#45;&gt;AppModule</title>
<path fill="none" stroke="black" d="M1635,-122.22C1635,-140.83 1635,-167 1635,-167 1635,-167 1125.71,-167 1125.71,-167"/>
<polygon fill="black" stroke="black" points="1125.71,-163.5 1115.71,-167 1125.71,-170.5 1125.71,-163.5"/>
</g>
<!-- AngularFirestoreModule -->
<g id="node14" class="node">
<title>AngularFirestoreModule</title>
<polygon fill="#8dd3c7" stroke="black" points="1498.68,-122 1495.68,-126 1474.68,-126 1471.68,-122 1343.32,-122 1343.32,-86 1498.68,-86 1498.68,-122"/>
<text text-anchor="middle" x="1421" y="-99.8" font-family="Times,serif" font-size="14.00">AngularFirestoreModule</text>
</g>
<!-- AngularFirestoreModule&#45;&gt;AppModule -->
<g id="edge13" class="edge">
<title>AngularFirestoreModule&#45;&gt;AppModule</title>
<path fill="none" stroke="black" d="M1421,-122.03C1421,-139.06 1421,-162 1421,-162 1421,-162 1125.86,-162 1125.86,-162"/>
<polygon fill="black" stroke="black" points="1125.86,-158.5 1115.86,-162 1125.86,-165.5 1125.86,-158.5"/>
</g>
<!-- AngularFirestore -->
<g id="node16" class="node">
<title>AngularFirestore</title>
<ellipse fill="#fdb462" stroke="black" cx="101" cy="-104" rx="77" ry="18"/>
<text text-anchor="middle" x="101" y="-99.8" font-family="Times,serif" font-size="14.00">AngularFirestore</text>
</g>
<!-- AngularFirestore&#45;&gt;AppModule -->
<g id="edge15" class="edge">
<title>AngularFirestore&#45;&gt;AppModule</title>
<path fill="none" stroke="black" d="M101,-122.09C101,-145.13 101,-182 101,-182 101,-182 1022.19,-182 1022.19,-182"/>
<polygon fill="black" stroke="black" points="1022.19,-185.5 1032.19,-182 1022.19,-178.5 1022.19,-185.5"/>
</g>
</g>
</svg>
