<?xml version="1.0" encoding="UTF-8" standalone="no"?>
<!DOCTYPE svg PUBLIC "-//W3C//DTD SVG 1.1//EN"
 "http://www.w3.org/Graphics/SVG/1.1/DTD/svg11.dtd">
<!-- Generated by graphviz version 2.40.1 (20161225.0304)
 -->
<!-- Title: dependencies Pages: 1 -->
<svg width="2248pt" height="284pt"
 viewBox="0.00 0.00 2248.00 284.00" xmlns="http://www.w3.org/2000/svg" xmlns:xlink="http://www.w3.org/1999/xlink">
<g id="graph0" class="graph" transform="scale(1 1) rotate(0) translate(4 280)">
<title>dependencies</title>
<polygon fill="#ffffff" stroke="transparent" points="-4,4 -4,-280 2244,-280 2244,4 -4,4"/>
<text text-anchor="start" x="1099.0091" y="-42.4" font-family="sans-serif" font-weight="bold" font-size="14.00" fill="#000000">Legend</text>
<polygon fill="#ffffb3" stroke="transparent" points="886,-10 886,-30 906,-30 906,-10 886,-10"/>
<text text-anchor="start" x="909.629" y="-15.4" font-family="sans-serif" font-size="14.00" fill="#000000"> &#160;Declarations</text>
<polygon fill="#8dd3c7" stroke="transparent" points="999,-10 999,-30 1019,-30 1019,-10 999,-10"/>
<text text-anchor="start" x="1022.7251" y="-15.4" font-family="sans-serif" font-size="14.00" fill="#000000"> &#160;Module</text>
<polygon fill="#80b1d3" stroke="transparent" points="1085,-10 1085,-30 1105,-30 1105,-10 1085,-10"/>
<text text-anchor="start" x="1108.7812" y="-15.4" font-family="sans-serif" font-size="14.00" fill="#000000"> &#160;Bootstrap</text>
<polygon fill="#fdb462" stroke="transparent" points="1182,-10 1182,-30 1202,-30 1202,-10 1182,-10"/>
<text text-anchor="start" x="1205.6732" y="-15.4" font-family="sans-serif" font-size="14.00" fill="#000000"> &#160;Providers</text>
<polygon fill="#fb8072" stroke="transparent" points="1278,-10 1278,-30 1298,-30 1298,-10 1278,-10"/>
<text text-anchor="start" x="1301.7258" y="-15.4" font-family="sans-serif" font-size="14.00" fill="#000000"> &#160;Exports</text>
<g id="clust1" class="cluster">
<title>cluster_AppModule</title>
<polygon fill="none" stroke="#000000" stroke-dasharray="1,5" points="8,-70 8,-268 2232,-268 2232,-70 8,-70"/>
</g>
<g id="clust2" class="cluster">
<title>cluster_AppModule_declarations</title>
<polygon fill="none" stroke="#000000" points="1091,-78 1091,-130 2224,-130 2224,-78 1091,-78"/>
</g>
<g id="clust11" class="cluster">
<title>cluster_AppModule_imports</title>
<polygon fill="none" stroke="#000000" points="194,-78 194,-130 1083,-130 1083,-78 194,-78"/>
</g>
<g id="clust13" class="cluster">
<title>cluster_AppModule_bootstrap</title>
<polygon fill="none" stroke="#000000" points="1158,-208 1158,-260 1282,-260 1282,-208 1158,-208"/>
</g>
<g id="clust14" class="cluster">
<title>cluster_AppModule_providers</title>
<polygon fill="none" stroke="#000000" points="16,-78 16,-130 186,-130 186,-78 16,-78"/>
</g>
<!-- AppComponent -->
<g id="node1" class="node">
<title>AppComponent</title>
<polygon fill="#ffffb3" stroke="#000000" points="2215.9399,-122 2110.0601,-122 2110.0601,-86 2215.9399,-86 2215.9399,-122"/>
<text text-anchor="middle" x="2163" y="-99.8" font-family="Times,serif" font-size="14.00" fill="#000000">AppComponent</text>
</g>
<!-- AppModule -->
<g id="node9" class="node">
<title>AppModule</title>
<polygon fill="#8dd3c7" stroke="#000000" points="1261.6571,-187 1258.6571,-191 1237.6571,-191 1234.6571,-187 1178.3429,-187 1178.3429,-151 1261.6571,-151 1261.6571,-187"/>
<text text-anchor="middle" x="1220" y="-164.8" font-family="Times,serif" font-size="14.00" fill="#000000">AppModule</text>
</g>
<!-- AppComponent&#45;&gt;AppModule -->
<g id="edge1" class="edge">
<title>AppComponent&#45;&gt;AppModule</title>
<path fill="none" stroke="#000000" d="M2163,-122.0908C2163,-145.1328 2163,-182 2163,-182 2163,-182 1271.7363,-182 1271.7363,-182"/>
<polygon fill="#000000" stroke="#000000" points="1271.7363,-178.5001 1261.7363,-182 1271.7363,-185.5001 1271.7363,-178.5001"/>
</g>
<!-- UserComponent -->
<g id="node2" class="node">
<title>UserComponent</title>
<polygon fill="#ffffb3" stroke="#000000" points="2091.7591,-122 1984.2409,-122 1984.2409,-86 2091.7591,-86 2091.7591,-122"/>
<text text-anchor="middle" x="2038" y="-99.8" font-family="Times,serif" font-size="14.00" fill="#000000">UserComponent</text>
</g>
<!-- UserComponent&#45;&gt;AppModule -->
<g id="edge2" class="edge">
<title>UserComponent&#45;&gt;AppModule</title>
<path fill="none" stroke="#000000" d="M2038,-122.0449C2038,-143.6623 2038,-177 2038,-177 2038,-177 1271.6893,-177 1271.6893,-177"/>
<polygon fill="#000000" stroke="#000000" points="1271.6894,-173.5001 1261.6893,-177 1271.6893,-180.5001 1271.6894,-173.5001"/>
</g>
<!-- CleanerComponent -->
<g id="node3" class="node">
<title>CleanerComponent</title>
<polygon fill="#ffffb3" stroke="#000000" points="1966.3641,-122 1841.6359,-122 1841.6359,-86 1966.3641,-86 1966.3641,-122"/>
<text text-anchor="middle" x="1904" y="-99.8" font-family="Times,serif" font-size="14.00" fill="#000000">CleanerComponent</text>
</g>
<!-- CleanerComponent&#45;&gt;AppModule -->
<g id="edge3" class="edge">
<title>CleanerComponent&#45;&gt;AppModule</title>
<path fill="none" stroke="#000000" d="M1904,-122.2228C1904,-142.3652 1904,-172 1904,-172 1904,-172 1271.7576,-172 1271.7576,-172"/>
<polygon fill="#000000" stroke="#000000" points="1271.7577,-168.5001 1261.7576,-172 1271.7576,-175.5001 1271.7577,-168.5001"/>
</g>
<!-- CustomerComponent -->
<g id="node4" class="node">
<title>CustomerComponent</title>
<polygon fill="#ffffb3" stroke="#000000" points="1823.7702,-122 1688.2298,-122 1688.2298,-86 1823.7702,-86 1823.7702,-122"/>
<text text-anchor="middle" x="1756" y="-99.8" font-family="Times,serif" font-size="14.00" fill="#000000">CustomerComponent</text>
</g>
<!-- CustomerComponent&#45;&gt;AppModule -->
<g id="edge4" class="edge">
<title>CustomerComponent&#45;&gt;AppModule</title>
<path fill="none" stroke="#000000" d="M1756,-122.2222C1756,-140.8285 1756,-167 1756,-167 1756,-167 1272.059,-167 1272.059,-167"/>
<polygon fill="#000000" stroke="#000000" points="1272.0591,-163.5001 1262.059,-167 1272.059,-170.5001 1272.0591,-163.5001"/>
</g>
<!-- RequestComponent -->
<g id="node5" class="node">
<title>RequestComponent</title>
<polygon fill="#ffffb3" stroke="#000000" points="1670.4341,-122 1543.5659,-122 1543.5659,-86 1670.4341,-86 1670.4341,-122"/>
<text text-anchor="middle" x="1607" y="-99.8" font-family="Times,serif" font-size="14.00" fill="#000000">RequestComponent</text>
</g>
<!-- RequestComponent&#45;&gt;AppModule -->
<g id="edge5" class="edge">
<title>RequestComponent&#45;&gt;AppModule</title>
<path fill="none" stroke="#000000" d="M1607,-122.0336C1607,-139.0597 1607,-162 1607,-162 1607,-162 1271.7835,-162 1271.7835,-162"/>
<polygon fill="#000000" stroke="#000000" points="1271.7835,-158.5001 1261.7835,-162 1271.7834,-165.5001 1271.7835,-158.5001"/>
</g>
<!-- MainMenuBarComponent -->
<g id="node6" class="node">
<title>MainMenuBarComponent</title>
<polygon fill="#ffffb3" stroke="#000000" points="1525.7534,-122 1362.2466,-122 1362.2466,-86 1525.7534,-86 1525.7534,-122"/>
<text text-anchor="middle" x="1444" y="-99.8" font-family="Times,serif" font-size="14.00" fill="#000000">MainMenuBarComponent</text>
</g>
<!-- MainMenuBarComponent&#45;&gt;AppModule -->
<g id="edge6" class="edge">
<title>MainMenuBarComponent&#45;&gt;AppModule</title>
<path fill="none" stroke="#000000" d="M1444,-122.2396C1444,-137.5706 1444,-157 1444,-157 1444,-157 1271.8699,-157 1271.8699,-157"/>
<polygon fill="#000000" stroke="#000000" points="1271.87,-153.5001 1261.8699,-157 1271.8699,-160.5001 1271.87,-153.5001"/>
</g>
<!-- AboutComponent -->
<g id="node7" class="node">
<title>AboutComponent</title>
<polygon fill="#ffffb3" stroke="#000000" points="1344.3301,-122 1227.6699,-122 1227.6699,-86 1344.3301,-86 1344.3301,-122"/>
<text text-anchor="middle" x="1286" y="-99.8" font-family="Times,serif" font-size="14.00" fill="#000000">AboutComponent</text>
</g>
<!-- AboutComponent&#45;&gt;AppModule -->
<g id="edge7" class="edge">
<title>AboutComponent&#45;&gt;AppModule</title>
<path fill="none" stroke="#000000" d="M1244.8317,-122.1061C1244.8317,-122.1061 1244.8317,-140.991 1244.8317,-140.991"/>
<polygon fill="#000000" stroke="#000000" points="1241.3318,-140.9909 1244.8317,-150.991 1248.3318,-140.991 1241.3318,-140.9909"/>
</g>
<!-- MainComponent -->
<g id="node8" class="node">
<title>MainComponent</title>
<polygon fill="#ffffb3" stroke="#000000" points="1209.3823,-122 1098.6177,-122 1098.6177,-86 1209.3823,-86 1209.3823,-122"/>
<text text-anchor="middle" x="1154" y="-99.8" font-family="Times,serif" font-size="14.00" fill="#000000">MainComponent</text>
</g>
<!-- MainComponent&#45;&gt;AppModule -->
<g id="edge8" class="edge">
<title>MainComponent&#45;&gt;AppModule</title>
<path fill="none" stroke="#000000" d="M1193.8065,-122.1061C1193.8065,-122.1061 1193.8065,-140.991 1193.8065,-140.991"/>
<polygon fill="#000000" stroke="#000000" points="1190.3065,-140.9909 1193.8065,-150.991 1197.3065,-140.991 1190.3065,-140.9909"/>
</g>
<!-- AppComponent  -->
<g id="node15" class="node">
<title>AppComponent </title>
<polygon fill="#80b1d3" stroke="#000000" points="1274.439,-252 1165.561,-252 1165.561,-216 1274.439,-216 1274.439,-252"/>
<text text-anchor="middle" x="1220" y="-229.8" font-family="Times,serif" font-size="14.00" fill="#000000">AppComponent </text>
</g>
<!-- AppModule&#45;&gt;AppComponent  -->
<g id="edge14" class="edge">
<title>AppModule&#45;&gt;AppComponent </title>
<path fill="none" stroke="#000000" stroke-dasharray="1,5" d="M1220,-187.1061C1220,-187.1061 1220,-205.991 1220,-205.991"/>
<polygon fill="#000000" stroke="#000000" points="1216.5001,-205.9909 1220,-215.991 1223.5001,-205.991 1216.5001,-205.9909"/>
</g>
<!-- BrowserModule -->
<g id="node10" class="node">
<title>BrowserModule</title>
<polygon fill="#8dd3c7" stroke="#000000" points="1075.4734,-122 1072.4734,-126 1051.4734,-126 1048.4734,-122 968.5266,-122 968.5266,-86 1075.4734,-86 1075.4734,-122"/>
<text text-anchor="middle" x="1022" y="-99.8" font-family="Times,serif" font-size="14.00" fill="#000000">BrowserModule</text>
</g>
<!-- BrowserModule&#45;&gt;AppModule -->
<g id="edge9" class="edge">
<title>BrowserModule&#45;&gt;AppModule</title>
<path fill="none" stroke="#000000" d="M1022,-122.2396C1022,-137.5706 1022,-157 1022,-157 1022,-157 1168.0093,-157 1168.0093,-157"/>
<polygon fill="#000000" stroke="#000000" points="1168.0093,-160.5001 1178.0093,-157 1168.0093,-153.5001 1168.0093,-160.5001"/>
</g>
<!-- BrowserAnimationsModule -->
<g id="node11" class="node">
<title>BrowserAnimationsModule</title>
<polygon fill="#8dd3c7" stroke="#000000" points="950.3019,-122 947.3019,-126 926.3019,-126 923.3019,-122 777.6981,-122 777.6981,-86 950.3019,-86 950.3019,-122"/>
<text text-anchor="middle" x="864" y="-99.8" font-family="Times,serif" font-size="14.00" fill="#000000">BrowserAnimationsModule</text>
</g>
<!-- BrowserAnimationsModule&#45;&gt;AppModule -->
<g id="edge10" class="edge">
<title>BrowserAnimationsModule&#45;&gt;AppModule</title>
<path fill="none" stroke="#000000" d="M864,-122.0336C864,-139.0597 864,-162 864,-162 864,-162 1168.1154,-162 1168.1154,-162"/>
<polygon fill="#000000" stroke="#000000" points="1168.1155,-165.5001 1178.1154,-162 1168.1154,-158.5001 1168.1155,-165.5001"/>
</g>
<!-- AppRoutingModule -->
<g id="node12" class="node">
<title>AppRoutingModule</title>
<polygon fill="#8dd3c7" stroke="#000000" points="759.2744,-122 756.2744,-126 735.2744,-126 732.2744,-122 630.7256,-122 630.7256,-86 759.2744,-86 759.2744,-122"/>
<text text-anchor="middle" x="695" y="-99.8" font-family="Times,serif" font-size="14.00" fill="#000000">AppRoutingModule</text>
</g>
<!-- AppRoutingModule&#45;&gt;AppModule -->
<g id="edge11" class="edge">
<title>AppRoutingModule&#45;&gt;AppModule</title>
<path fill="none" stroke="#000000" d="M695,-122.2222C695,-140.8285 695,-167 695,-167 695,-167 1167.9245,-167 1167.9245,-167"/>
<polygon fill="#000000" stroke="#000000" points="1167.9245,-170.5001 1177.9245,-167 1167.9245,-163.5001 1167.9245,-170.5001"/>
</g>
<!-- AngularFireModule.initializeApp(args) -->
<g id="node13" class="node">
<title>AngularFireModule.initializeApp(args)</title>
<polygon fill="#8dd3c7" stroke="#000000" points="612.7057,-122 609.7057,-126 588.7057,-126 585.7057,-122 375.2943,-122 375.2943,-86 612.7057,-86 612.7057,-122"/>
<text text-anchor="middle" x="494" y="-99.8" font-family="Times,serif" font-size="14.00" fill="#000000">AngularFireModule.initializeApp(args)</text>
</g>
<!-- AngularFireModule.initializeApp(args)&#45;&gt;AppModule -->
<g id="edge12" class="edge">
<title>AngularFireModule.initializeApp(args)&#45;&gt;AppModule</title>
<path fill="none" stroke="#000000" d="M494,-122.2228C494,-142.3652 494,-172 494,-172 494,-172 1168.0947,-172 1168.0947,-172"/>
<polygon fill="#000000" stroke="#000000" points="1168.0947,-175.5001 1178.0947,-172 1168.0947,-168.5001 1168.0947,-175.5001"/>
</g>
<!-- AngularFirestoreModule -->
<g id="node14" class="node">
<title>AngularFirestoreModule</title>
<polygon fill="#8dd3c7" stroke="#000000" points="357.6811,-122 354.6811,-126 333.6811,-126 330.6811,-122 202.3189,-122 202.3189,-86 357.6811,-86 357.6811,-122"/>
<text text-anchor="middle" x="280" y="-99.8" font-family="Times,serif" font-size="14.00" fill="#000000">AngularFirestoreModule</text>
</g>
<!-- AngularFirestoreModule&#45;&gt;AppModule -->
<g id="edge13" class="edge">
<title>AngularFirestoreModule&#45;&gt;AppModule</title>
<path fill="none" stroke="#000000" d="M280,-122.0449C280,-143.6623 280,-177 280,-177 280,-177 1168.0908,-177 1168.0908,-177"/>
<polygon fill="#000000" stroke="#000000" points="1168.0908,-180.5001 1178.0908,-177 1168.0907,-173.5001 1168.0908,-180.5001"/>
</g>
<!-- AngularFirestore -->
<g id="node16" class="node">
<title>AngularFirestore</title>
<ellipse fill="#fdb462" stroke="#000000" cx="101" cy="-104" rx="77.0023" ry="18"/>
<text text-anchor="middle" x="101" y="-99.8" font-family="Times,serif" font-size="14.00" fill="#000000">AngularFirestore</text>
</g>
<!-- AngularFirestore&#45;&gt;AppModule -->
<g id="edge15" class="edge">
<title>AngularFirestore&#45;&gt;AppModule</title>
<path fill="none" stroke="#000000" d="M101,-122.0908C101,-145.1328 101,-182 101,-182 101,-182 1168.1762,-182 1168.1762,-182"/>
<polygon fill="#000000" stroke="#000000" points="1168.1762,-185.5001 1178.1762,-182 1168.1761,-178.5001 1168.1762,-185.5001"/>
</g>
</g>
</svg>
