<?xml version="1.0" encoding="UTF-8" standalone="no"?>
<!DOCTYPE svg PUBLIC "-//W3C//DTD SVG 1.1//EN"
 "http://www.w3.org/Graphics/SVG/1.1/DTD/svg11.dtd">
<!-- Generated by graphviz version 2.46.1 (20210213.1702)
 -->
<!-- Title: dependencies Pages: 1 -->
<svg width="2248pt" height="284pt"
 viewBox="0.00 0.00 2248.00 284.00" xmlns="http://www.w3.org/2000/svg" xmlns:xlink="http://www.w3.org/1999/xlink">
<g id="graph0" class="graph" transform="scale(1 1) rotate(0) translate(4 280)">
<title>dependencies</title>
<polygon fill="white" stroke="transparent" points="-4,4 -4,-280 2244,-280 2244,4 -4,4"/>
<text text-anchor="start" x="1099.01" y="-42.4" font-family="sans-serif" font-weight="bold" font-size="14.00">Legend</text>
<polygon fill="#ffffb3" stroke="transparent" points="886,-10 886,-30 906,-30 906,-10 886,-10"/>
<text text-anchor="start" x="909.63" y="-15.4" font-family="sans-serif" font-size="14.00"> &#160;Declarations</text>
<polygon fill="#8dd3c7" stroke="transparent" points="999,-10 999,-30 1019,-30 1019,-10 999,-10"/>
<text text-anchor="start" x="1022.73" y="-15.4" font-family="sans-serif" font-size="14.00"> &#160;Module</text>
<polygon fill="#80b1d3" stroke="transparent" points="1085,-10 1085,-30 1105,-30 1105,-10 1085,-10"/>
<text text-anchor="start" x="1108.78" y="-15.4" font-family="sans-serif" font-size="14.00"> &#160;Bootstrap</text>
<polygon fill="#fdb462" stroke="transparent" points="1182,-10 1182,-30 1202,-30 1202,-10 1182,-10"/>
<text text-anchor="start" x="1205.67" y="-15.4" font-family="sans-serif" font-size="14.00"> &#160;Providers</text>
<polygon fill="#fb8072" stroke="transparent" points="1278,-10 1278,-30 1298,-30 1298,-10 1278,-10"/>
<text text-anchor="start" x="1301.73" y="-15.4" font-family="sans-serif" font-size="14.00"> &#160;Exports</text>
<g id="clust1" class="cluster">
<title>cluster_AppModule</title>
<polygon fill="none" stroke="black" stroke-dasharray="1,5" points="8,-70 8,-268 2232,-268 2232,-70 8,-70"/>
</g>
<g id="clust2" class="cluster">
<title>cluster_AppModule_declarations</title>
<polygon fill="none" stroke="black" points="1091,-78 1091,-130 2224,-130 2224,-78 1091,-78"/>
</g>
<g id="clust11" class="cluster">
<title>cluster_AppModule_imports</title>
<polygon fill="none" stroke="black" points="194,-78 194,-130 1083,-130 1083,-78 194,-78"/>
</g>
<g id="clust13" class="cluster">
<title>cluster_AppModule_bootstrap</title>
<polygon fill="none" stroke="black" points="1158,-208 1158,-260 1282,-260 1282,-208 1158,-208"/>
</g>
<g id="clust14" class="cluster">
<title>cluster_AppModule_providers</title>
<polygon fill="none" stroke="black" points="16,-78 16,-130 186,-130 186,-78 16,-78"/>
</g>
<!-- AppComponent -->
<g id="node1" class="node">
<title>AppComponent</title>
<polygon fill="#ffffb3" stroke="black" points="2215.94,-122 2110.06,-122 2110.06,-86 2215.94,-86 2215.94,-122"/>
<text text-anchor="middle" x="2163" y="-99.8" font-family="Times,serif" font-size="14.00">AppComponent</text>
</g>
<!-- AppModule -->
<g id="node9" class="node">
<title>AppModule</title>
<polygon fill="#8dd3c7" stroke="black" points="1261.66,-187 1258.66,-191 1237.66,-191 1234.66,-187 1178.34,-187 1178.34,-151 1261.66,-151 1261.66,-187"/>
<text text-anchor="middle" x="1220" y="-164.8" font-family="Times,serif" font-size="14.00">AppModule</text>
</g>
<!-- AppComponent&#45;&gt;AppModule -->
<g id="edge1" class="edge">
<title>AppComponent&#45;&gt;AppModule</title>
<path fill="none" stroke="black" d="M2163,-122.09C2163,-145.13 2163,-182 2163,-182 2163,-182 1271.74,-182 1271.74,-182"/>
<polygon fill="black" stroke="black" points="1271.74,-178.5 1261.74,-182 1271.74,-185.5 1271.74,-178.5"/>
</g>
<!-- UserComponent -->
<g id="node2" class="node">
<title>UserComponent</title>
<polygon fill="#ffffb3" stroke="black" points="2091.76,-122 1984.24,-122 1984.24,-86 2091.76,-86 2091.76,-122"/>
<text text-anchor="middle" x="2038" y="-99.8" font-family="Times,serif" font-size="14.00">UserComponent</text>
</g>
<!-- UserComponent&#45;&gt;AppModule -->
<g id="edge2" class="edge">
<title>UserComponent&#45;&gt;AppModule</title>
<path fill="none" stroke="black" d="M2038,-122.04C2038,-143.66 2038,-177 2038,-177 2038,-177 1271.69,-177 1271.69,-177"/>
<polygon fill="black" stroke="black" points="1271.69,-173.5 1261.69,-177 1271.69,-180.5 1271.69,-173.5"/>
</g>
<!-- CleanerComponent -->
<g id="node3" class="node">
<title>CleanerComponent</title>
<polygon fill="#ffffb3" stroke="black" points="1966.36,-122 1841.64,-122 1841.64,-86 1966.36,-86 1966.36,-122"/>
<text text-anchor="middle" x="1904" y="-99.8" font-family="Times,serif" font-size="14.00">CleanerComponent</text>
</g>
<!-- CleanerComponent&#45;&gt;AppModule -->
<g id="edge3" class="edge">
<title>CleanerComponent&#45;&gt;AppModule</title>
<path fill="none" stroke="black" d="M1904,-122.22C1904,-142.37 1904,-172 1904,-172 1904,-172 1271.76,-172 1271.76,-172"/>
<polygon fill="black" stroke="black" points="1271.76,-168.5 1261.76,-172 1271.76,-175.5 1271.76,-168.5"/>
</g>
<!-- CustomerComponent -->
<g id="node4" class="node">
<title>CustomerComponent</title>
<polygon fill="#ffffb3" stroke="black" points="1823.77,-122 1688.23,-122 1688.23,-86 1823.77,-86 1823.77,-122"/>
<text text-anchor="middle" x="1756" y="-99.8" font-family="Times,serif" font-size="14.00">CustomerComponent</text>
</g>
<!-- CustomerComponent&#45;&gt;AppModule -->
<g id="edge4" class="edge">
<title>CustomerComponent&#45;&gt;AppModule</title>
<path fill="none" stroke="black" d="M1756,-122.22C1756,-140.83 1756,-167 1756,-167 1756,-167 1272.06,-167 1272.06,-167"/>
<polygon fill="black" stroke="black" points="1272.06,-163.5 1262.06,-167 1272.06,-170.5 1272.06,-163.5"/>
</g>
<!-- RequestComponent -->
<g id="node5" class="node">
<title>RequestComponent</title>
<polygon fill="#ffffb3" stroke="black" points="1670.43,-122 1543.57,-122 1543.57,-86 1670.43,-86 1670.43,-122"/>
<text text-anchor="middle" x="1607" y="-99.8" font-family="Times,serif" font-size="14.00">RequestComponent</text>
</g>
<!-- RequestComponent&#45;&gt;AppModule -->
<g id="edge5" class="edge">
<title>RequestComponent&#45;&gt;AppModule</title>
<path fill="none" stroke="black" d="M1607,-122.03C1607,-139.06 1607,-162 1607,-162 1607,-162 1271.78,-162 1271.78,-162"/>
<polygon fill="black" stroke="black" points="1271.78,-158.5 1261.78,-162 1271.78,-165.5 1271.78,-158.5"/>
</g>
<!-- MainMenuBarComponent -->
<g id="node6" class="node">
<title>MainMenuBarComponent</title>
<polygon fill="#ffffb3" stroke="black" points="1525.75,-122 1362.25,-122 1362.25,-86 1525.75,-86 1525.75,-122"/>
<text text-anchor="middle" x="1444" y="-99.8" font-family="Times,serif" font-size="14.00">MainMenuBarComponent</text>
</g>
<!-- MainMenuBarComponent&#45;&gt;AppModule -->
<g id="edge6" class="edge">
<title>MainMenuBarComponent&#45;&gt;AppModule</title>
<path fill="none" stroke="black" d="M1444,-122.24C1444,-137.57 1444,-157 1444,-157 1444,-157 1271.87,-157 1271.87,-157"/>
<polygon fill="black" stroke="black" points="1271.87,-153.5 1261.87,-157 1271.87,-160.5 1271.87,-153.5"/>
</g>
<!-- AboutComponent -->
<g id="node7" class="node">
<title>AboutComponent</title>
<polygon fill="#ffffb3" stroke="black" points="1344.33,-122 1227.67,-122 1227.67,-86 1344.33,-86 1344.33,-122"/>
<text text-anchor="middle" x="1286" y="-99.8" font-family="Times,serif" font-size="14.00">AboutComponent</text>
</g>
<!-- AboutComponent&#45;&gt;AppModule -->
<g id="edge7" class="edge">
<title>AboutComponent&#45;&gt;AppModule</title>
<path fill="none" stroke="black" d="M1244.83,-122.11C1244.83,-122.11 1244.83,-140.99 1244.83,-140.99"/>
<polygon fill="black" stroke="black" points="1241.33,-140.99 1244.83,-150.99 1248.33,-140.99 1241.33,-140.99"/>
</g>
<!-- MainComponent -->
<g id="node8" class="node">
<title>MainComponent</title>
<polygon fill="#ffffb3" stroke="black" points="1209.38,-122 1098.62,-122 1098.62,-86 1209.38,-86 1209.38,-122"/>
<text text-anchor="middle" x="1154" y="-99.8" font-family="Times,serif" font-size="14.00">MainComponent</text>
</g>
<!-- MainComponent&#45;&gt;AppModule -->
<g id="edge8" class="edge">
<title>MainComponent&#45;&gt;AppModule</title>
<path fill="none" stroke="black" d="M1193.81,-122.11C1193.81,-122.11 1193.81,-140.99 1193.81,-140.99"/>
<polygon fill="black" stroke="black" points="1190.31,-140.99 1193.81,-150.99 1197.31,-140.99 1190.31,-140.99"/>
</g>
<!-- AppComponent  -->
<g id="node15" class="node">
<title>AppComponent </title>
<polygon fill="#80b1d3" stroke="black" points="1274.44,-252 1165.56,-252 1165.56,-216 1274.44,-216 1274.44,-252"/>
<text text-anchor="middle" x="1220" y="-229.8" font-family="Times,serif" font-size="14.00">AppComponent </text>
</g>
<!-- AppModule&#45;&gt;AppComponent  -->
<g id="edge14" class="edge">
<title>AppModule&#45;&gt;AppComponent </title>
<path fill="none" stroke="black" stroke-dasharray="1,5" d="M1220,-187.11C1220,-187.11 1220,-205.99 1220,-205.99"/>
<polygon fill="black" stroke="black" points="1216.5,-205.99 1220,-215.99 1223.5,-205.99 1216.5,-205.99"/>
</g>
<!-- BrowserModule -->
<g id="node10" class="node">
<title>BrowserModule</title>
<polygon fill="#8dd3c7" stroke="black" points="1075.47,-122 1072.47,-126 1051.47,-126 1048.47,-122 968.53,-122 968.53,-86 1075.47,-86 1075.47,-122"/>
<text text-anchor="middle" x="1022" y="-99.8" font-family="Times,serif" font-size="14.00">BrowserModule</text>
</g>
<!-- BrowserModule&#45;&gt;AppModule -->
<g id="edge9" class="edge">
<title>BrowserModule&#45;&gt;AppModule</title>
<path fill="none" stroke="black" d="M1022,-122.24C1022,-137.57 1022,-157 1022,-157 1022,-157 1168.01,-157 1168.01,-157"/>
<polygon fill="black" stroke="black" points="1168.01,-160.5 1178.01,-157 1168.01,-153.5 1168.01,-160.5"/>
</g>
<!-- BrowserAnimationsModule -->
<g id="node11" class="node">
<title>BrowserAnimationsModule</title>
<polygon fill="#8dd3c7" stroke="black" points="950.3,-122 947.3,-126 926.3,-126 923.3,-122 777.7,-122 777.7,-86 950.3,-86 950.3,-122"/>
<text text-anchor="middle" x="864" y="-99.8" font-family="Times,serif" font-size="14.00">BrowserAnimationsModule</text>
</g>
<!-- BrowserAnimationsModule&#45;&gt;AppModule -->
<g id="edge10" class="edge">
<title>BrowserAnimationsModule&#45;&gt;AppModule</title>
<path fill="none" stroke="black" d="M864,-122.03C864,-139.06 864,-162 864,-162 864,-162 1168.12,-162 1168.12,-162"/>
<polygon fill="black" stroke="black" points="1168.12,-165.5 1178.12,-162 1168.12,-158.5 1168.12,-165.5"/>
</g>
<!-- AppRoutingModule -->
<g id="node12" class="node">
<title>AppRoutingModule</title>
<polygon fill="#8dd3c7" stroke="black" points="759.27,-122 756.27,-126 735.27,-126 732.27,-122 630.73,-122 630.73,-86 759.27,-86 759.27,-122"/>
<text text-anchor="middle" x="695" y="-99.8" font-family="Times,serif" font-size="14.00">AppRoutingModule</text>
</g>
<!-- AppRoutingModule&#45;&gt;AppModule -->
<g id="edge11" class="edge">
<title>AppRoutingModule&#45;&gt;AppModule</title>
<path fill="none" stroke="black" d="M695,-122.22C695,-140.83 695,-167 695,-167 695,-167 1167.92,-167 1167.92,-167"/>
<polygon fill="black" stroke="black" points="1167.92,-170.5 1177.92,-167 1167.92,-163.5 1167.92,-170.5"/>
</g>
<!-- AngularFireModule.initializeApp(args) -->
<g id="node13" class="node">
<title>AngularFireModule.initializeApp(args)</title>
<polygon fill="#8dd3c7" stroke="black" points="612.71,-122 609.71,-126 588.71,-126 585.71,-122 375.29,-122 375.29,-86 612.71,-86 612.71,-122"/>
<text text-anchor="middle" x="494" y="-99.8" font-family="Times,serif" font-size="14.00">AngularFireModule.initializeApp(args)</text>
</g>
<!-- AngularFireModule.initializeApp(args)&#45;&gt;AppModule -->
<g id="edge12" class="edge">
<title>AngularFireModule.initializeApp(args)&#45;&gt;AppModule</title>
<path fill="none" stroke="black" d="M494,-122.22C494,-142.37 494,-172 494,-172 494,-172 1168.09,-172 1168.09,-172"/>
<polygon fill="black" stroke="black" points="1168.09,-175.5 1178.09,-172 1168.09,-168.5 1168.09,-175.5"/>
</g>
<!-- AngularFirestoreModule -->
<g id="node14" class="node">
<title>AngularFirestoreModule</title>
<polygon fill="#8dd3c7" stroke="black" points="357.68,-122 354.68,-126 333.68,-126 330.68,-122 202.32,-122 202.32,-86 357.68,-86 357.68,-122"/>
<text text-anchor="middle" x="280" y="-99.8" font-family="Times,serif" font-size="14.00">AngularFirestoreModule</text>
</g>
<!-- AngularFirestoreModule&#45;&gt;AppModule -->
<g id="edge13" class="edge">
<title>AngularFirestoreModule&#45;&gt;AppModule</title>
<path fill="none" stroke="black" d="M280,-122.04C280,-143.66 280,-177 280,-177 280,-177 1168.09,-177 1168.09,-177"/>
<polygon fill="black" stroke="black" points="1168.09,-180.5 1178.09,-177 1168.09,-173.5 1168.09,-180.5"/>
</g>
<!-- AngularFirestore -->
<g id="node16" class="node">
<title>AngularFirestore</title>
<ellipse fill="#fdb462" stroke="black" cx="101" cy="-104" rx="77" ry="18"/>
<text text-anchor="middle" x="101" y="-99.8" font-family="Times,serif" font-size="14.00">AngularFirestore</text>
</g>
<!-- AngularFirestore&#45;&gt;AppModule -->
<g id="edge15" class="edge">
<title>AngularFirestore&#45;&gt;AppModule</title>
<path fill="none" stroke="black" d="M101,-122.09C101,-145.13 101,-182 101,-182 101,-182 1168.18,-182 1168.18,-182"/>
<polygon fill="black" stroke="black" points="1168.18,-185.5 1178.18,-182 1168.18,-178.5 1168.18,-185.5"/>
</g>
</g>
</svg>
